<?xml version="1.0" encoding="UTF-8" standalone="no"?>
<!DOCTYPE svg PUBLIC "-//W3C//DTD SVG 1.1//EN" "http://www.w3.org/Graphics/SVG/1.1/DTD/svg11.dtd">
<svg width="100%" height="100%" viewBox="0 0 64 64" version="1.1" xmlns="http://www.w3.org/2000/svg" xmlns:xlink="http://www.w3.org/1999/xlink" xml:space="preserve" xmlns:serif="http://www.serif.com/" style="fill-rule:evenodd;clip-rule:evenodd;stroke-linecap:round;stroke-linejoin:round;">
    <g>
        <path d="M14,4C14,28 50,36 50,60" style="fill:none;fill-rule:nonzero;stroke:rgb(37,99,235);stroke-width:5px;"/>
        <path d="M50,4C50,28 14,36 14,60" style="fill:none;fill-rule:nonzero;stroke:rgb(37,99,235);stroke-width:5px;"/>
    </g>
    <g transform="matrix(0.692669,0,0,0.692669,22.594,-11.7083)">
        <g transform="matrix(1.44369,0,0,1.44369,-32.6188,16.9032)">
            <path d="M23.941,8.562C23.602,9.985 22.321,11.045 20.795,11.045C19.009,11.045 17.56,9.596 17.56,7.811C17.56,6.026 19.009,4.576 20.795,4.576C22.321,4.576 23.602,5.636 23.941,7.059L24.219,7.064L24.435,7.067C24.489,6.784 24.739,6.569 25.038,6.569L27.44,6.569C27.759,6.569 28.162,6.856 28.203,7.166L28.209,7.165C28.226,6.853 28.479,6.599 28.798,6.587L31.198,6.495C31.535,6.482 31.819,6.743 31.835,7.079L31.835,7.079C31.824,6.743 32.086,6.45 32.422,6.422L34.817,6.229C35.154,6.201 35.45,6.453 35.477,6.791L35.477,6.783C35.454,6.449 35.704,6.157 36.039,6.13L38.434,5.936C38.772,5.909 39.068,6.161 39.095,6.498L39.096,6.513C39.069,6.175 39.357,5.811 39.695,5.806L42.097,5.77C42.436,5.765 42.715,6.036 42.72,6.374L42.721,6.461C43.051,6.456 43.336,6.45 43.57,6.443C43.998,6.431 45.309,6.038 45.606,5.887C45.861,5.757 46.157,5.297 46.157,5.297C46.157,5.297 45.903,5.736 45.937,5.802C46.164,5.727 46.361,5.692 46.361,5.692C46.361,5.692 45.504,6.022 45.377,6.212C45.608,6.297 46.592,6.595 46.592,6.595C46.592,6.595 45.528,6.478 45.144,6.335C44.859,6.229 44.491,6.652 44.373,6.743C44.33,6.776 44.376,6.872 44.434,6.879C45.228,6.966 46.348,6.797 46.348,6.797C46.348,6.797 45.97,7.024 45.996,7.146C46.023,7.268 46.454,7.653 46.454,7.653C46.454,7.653 45.807,7.126 45.496,7.05C45.2,6.979 44.753,7.139 44.588,7.198C44.507,7.227 44.439,7.356 44.503,7.406C44.652,7.525 45.009,7.626 45.322,7.744C45.931,7.973 46.37,7.925 46.437,7.916L46.446,7.915C46.446,7.915 46.443,7.915 46.437,7.916C46.367,7.926 45.911,7.994 45.797,8.013C45.783,8.078 46.313,8.502 46.313,8.502C46.313,8.502 44.192,7.549 43.505,7.539C43.288,7.536 43.03,7.535 42.737,7.536L42.738,7.601C42.743,7.939 42.472,8.218 42.134,8.223L39.731,8.259C39.393,8.264 39.222,8.073 39.195,7.735L39.194,7.721C39.221,8.058 38.969,8.354 38.632,8.382L36.237,8.575C35.9,8.603 35.604,8.351 35.576,8.013L35.577,8.021C35.6,8.355 35.349,8.647 35.014,8.674L32.619,8.868C32.291,8.894 31.91,8.662 31.884,8.336L31.883,8.336C31.881,8.663 31.622,8.934 31.293,8.946L28.892,9.039C28.581,9.051 28.316,8.829 28.264,8.531L28.253,8.532C28.225,8.833 27.751,9.023 27.44,9.023L25.038,9.023C24.749,9.023 24.506,8.822 24.441,8.553L24.21,8.557L23.941,8.562Z" style="fill:rgb(37,99,235);"/>
        </g>
        <g transform="matrix(-1.44369,0,0,1.44369,59.9971,89.0878)">
            <path d="M23.941,8.562C23.602,9.985 22.321,11.045 20.795,11.045C19.009,11.045 17.56,9.596 17.56,7.811C17.56,6.026 19.009,4.576 20.795,4.576C22.321,4.576 23.602,5.636 23.941,7.059L24.219,7.064L24.435,7.067C24.489,6.784 24.739,6.569 25.038,6.569L27.44,6.569C27.759,6.569 28.162,6.856 28.203,7.166L28.209,7.165C28.226,6.853 28.479,6.599 28.798,6.587L31.198,6.495C31.535,6.482 31.819,6.743 31.835,7.079L31.835,7.079C31.824,6.743 32.086,6.45 32.422,6.422L34.817,6.229C35.154,6.201 35.45,6.453 35.477,6.791L35.477,6.783C35.454,6.449 35.704,6.157 36.039,6.13L38.434,5.936C38.772,5.909 39.068,6.161 39.095,6.498L39.096,6.513C39.069,6.175 39.357,5.811 39.695,5.806L42.097,5.77C42.436,5.765 42.715,6.036 42.72,6.374L42.721,6.461C43.051,6.456 43.336,6.45 43.57,6.443C43.998,6.431 45.309,6.038 45.606,5.887C45.861,5.757 46.157,5.297 46.157,5.297C46.157,5.297 45.903,5.736 45.937,5.802C46.164,5.727 46.361,5.692 46.361,5.692C46.361,5.692 45.504,6.022 45.377,6.212C45.608,6.297 46.592,6.595 46.592,6.595C46.592,6.595 45.528,6.478 45.144,6.335C44.859,6.229 44.491,6.652 44.373,6.743C44.33,6.776 44.376,6.872 44.434,6.879C45.228,6.966 46.348,6.797 46.348,6.797C46.348,6.797 45.97,7.024 45.996,7.146C46.023,7.268 46.454,7.653 46.454,7.653C46.454,7.653 45.807,7.126 45.496,7.05C45.2,6.979 44.753,7.139 44.588,7.198C44.507,7.227 44.439,7.356 44.503,7.406C44.652,7.525 45.009,7.626 45.322,7.744C45.931,7.973 46.37,7.925 46.437,7.916L46.446,7.915C46.446,7.915 46.443,7.915 46.437,7.916C46.367,7.926 45.911,7.994 45.797,8.013C45.783,8.078 46.313,8.502 46.313,8.502C46.313,8.502 44.192,7.549 43.505,7.539C43.288,7.536 43.03,7.535 42.737,7.536L42.738,7.601C42.743,7.939 42.472,8.218 42.134,8.223L39.731,8.259C39.393,8.264 39.222,8.073 39.195,7.735L39.194,7.721C39.221,8.058 38.969,8.354 38.632,8.382L36.237,8.575C35.9,8.603 35.604,8.351 35.576,8.013L35.577,8.021C35.6,8.355 35.349,8.647 35.014,8.674L32.619,8.868C32.291,8.894 31.91,8.662 31.884,8.336L31.883,8.336C31.881,8.663 31.622,8.934 31.293,8.946L28.892,9.039C28.581,9.051 28.316,8.829 28.264,8.531L28.253,8.532C28.225,8.833 27.751,9.023 27.44,9.023L25.038,9.023C24.749,9.023 24.506,8.822 24.441,8.553L24.21,8.557L23.941,8.562Z" style="fill:rgb(37,99,235);"/>
        </g>
    </g>
</svg>
